<mxfile host="app.diagrams.net" agent="Mozilla/5.0 (Windows NT 10.0; Win64; x64) AppleWebKit/537.36 (KHTML, like Gecko) Chrome/138.0.0.0 Safari/537.36" version="28.0.6">
  <diagram name="Page-1" id="orfWhE0vp87Ghpa2xbKX">
    <mxGraphModel dx="1678" dy="874" grid="1" gridSize="10" guides="1" tooltips="1" connect="1" arrows="1" fold="1" page="1" pageScale="1" pageWidth="850" pageHeight="1100" math="0" shadow="0">
      <root>
        <mxCell id="0" />
        <mxCell id="1" parent="0" />
        <mxCell id="xlSdThNH392_cb_FqB2u-3" value="" style="edgeStyle=orthogonalEdgeStyle;rounded=0;orthogonalLoop=1;jettySize=auto;html=1;" edge="1" parent="1" source="xlSdThNH392_cb_FqB2u-1" target="xlSdThNH392_cb_FqB2u-2">
          <mxGeometry relative="1" as="geometry" />
        </mxCell>
        <mxCell id="xlSdThNH392_cb_FqB2u-5" value="" style="edgeStyle=orthogonalEdgeStyle;rounded=0;orthogonalLoop=1;jettySize=auto;html=1;" edge="1" parent="1" source="xlSdThNH392_cb_FqB2u-1" target="xlSdThNH392_cb_FqB2u-4">
          <mxGeometry relative="1" as="geometry" />
        </mxCell>
        <mxCell id="xlSdThNH392_cb_FqB2u-7" value="" style="edgeStyle=orthogonalEdgeStyle;rounded=0;orthogonalLoop=1;jettySize=auto;html=1;" edge="1" parent="1" source="xlSdThNH392_cb_FqB2u-1" target="xlSdThNH392_cb_FqB2u-6">
          <mxGeometry relative="1" as="geometry" />
        </mxCell>
        <mxCell id="xlSdThNH392_cb_FqB2u-11" value="" style="edgeStyle=orthogonalEdgeStyle;rounded=0;orthogonalLoop=1;jettySize=auto;html=1;" edge="1" parent="1" source="xlSdThNH392_cb_FqB2u-1" target="xlSdThNH392_cb_FqB2u-10">
          <mxGeometry relative="1" as="geometry" />
        </mxCell>
        <mxCell id="xlSdThNH392_cb_FqB2u-1" value="Start" style="ellipse;whiteSpace=wrap;html=1;" vertex="1" parent="1">
          <mxGeometry x="360" y="40" width="90" height="60" as="geometry" />
        </mxCell>
        <mxCell id="xlSdThNH392_cb_FqB2u-27" style="edgeStyle=orthogonalEdgeStyle;rounded=0;orthogonalLoop=1;jettySize=auto;html=1;" edge="1" parent="1" source="xlSdThNH392_cb_FqB2u-2" target="xlSdThNH392_cb_FqB2u-25">
          <mxGeometry relative="1" as="geometry">
            <Array as="points">
              <mxPoint x="590" y="620" />
            </Array>
          </mxGeometry>
        </mxCell>
        <mxCell id="xlSdThNH392_cb_FqB2u-2" value="About" style="whiteSpace=wrap;html=1;" vertex="1" parent="1">
          <mxGeometry x="530" y="210" width="120" height="60" as="geometry" />
        </mxCell>
        <mxCell id="xlSdThNH392_cb_FqB2u-26" style="edgeStyle=orthogonalEdgeStyle;rounded=0;orthogonalLoop=1;jettySize=auto;html=1;entryX=0.5;entryY=1;entryDx=0;entryDy=0;" edge="1" parent="1">
          <mxGeometry relative="1" as="geometry">
            <mxPoint x="390" y="639.9999999999998" as="targetPoint" />
            <mxPoint x="750.0000000000005" y="280" as="sourcePoint" />
            <Array as="points">
              <mxPoint x="750" y="680" />
              <mxPoint x="390" y="680" />
            </Array>
          </mxGeometry>
        </mxCell>
        <mxCell id="xlSdThNH392_cb_FqB2u-4" value="Contact" style="whiteSpace=wrap;html=1;" vertex="1" parent="1">
          <mxGeometry x="690" y="220" width="120" height="60" as="geometry" />
        </mxCell>
        <mxCell id="xlSdThNH392_cb_FqB2u-13" value="" style="edgeStyle=orthogonalEdgeStyle;rounded=0;orthogonalLoop=1;jettySize=auto;html=1;" edge="1" parent="1" source="xlSdThNH392_cb_FqB2u-6" target="xlSdThNH392_cb_FqB2u-12">
          <mxGeometry relative="1" as="geometry" />
        </mxCell>
        <mxCell id="xlSdThNH392_cb_FqB2u-15" value="" style="edgeStyle=orthogonalEdgeStyle;rounded=0;orthogonalLoop=1;jettySize=auto;html=1;" edge="1" parent="1" source="xlSdThNH392_cb_FqB2u-6" target="xlSdThNH392_cb_FqB2u-14">
          <mxGeometry relative="1" as="geometry" />
        </mxCell>
        <mxCell id="xlSdThNH392_cb_FqB2u-23" value="" style="edgeStyle=orthogonalEdgeStyle;rounded=0;orthogonalLoop=1;jettySize=auto;html=1;" edge="1" parent="1" source="xlSdThNH392_cb_FqB2u-6" target="xlSdThNH392_cb_FqB2u-22">
          <mxGeometry relative="1" as="geometry" />
        </mxCell>
        <mxCell id="xlSdThNH392_cb_FqB2u-6" value="Services" style="whiteSpace=wrap;html=1;" vertex="1" parent="1">
          <mxGeometry x="280" y="210" width="120" height="60" as="geometry" />
        </mxCell>
        <mxCell id="xlSdThNH392_cb_FqB2u-10" value="Home" style="whiteSpace=wrap;html=1;" vertex="1" parent="1">
          <mxGeometry x="50" y="210" width="120" height="60" as="geometry" />
        </mxCell>
        <mxCell id="xlSdThNH392_cb_FqB2u-32" style="edgeStyle=orthogonalEdgeStyle;rounded=0;orthogonalLoop=1;jettySize=auto;html=1;" edge="1" parent="1" source="xlSdThNH392_cb_FqB2u-12" target="xlSdThNH392_cb_FqB2u-25">
          <mxGeometry relative="1" as="geometry">
            <mxPoint x="330" y="620" as="targetPoint" />
            <Array as="points">
              <mxPoint x="210" y="600" />
            </Array>
          </mxGeometry>
        </mxCell>
        <mxCell id="xlSdThNH392_cb_FqB2u-12" value="Personal Traning" style="whiteSpace=wrap;html=1;" vertex="1" parent="1">
          <mxGeometry x="150" y="390" width="120" height="60" as="geometry" />
        </mxCell>
        <mxCell id="xlSdThNH392_cb_FqB2u-14" value="Group Classes" style="whiteSpace=wrap;html=1;" vertex="1" parent="1">
          <mxGeometry x="300" y="390" width="120" height="60" as="geometry" />
        </mxCell>
        <mxCell id="xlSdThNH392_cb_FqB2u-22" value="Nutrition Plans" style="whiteSpace=wrap;html=1;" vertex="1" parent="1">
          <mxGeometry x="440" y="390" width="120" height="60" as="geometry" />
        </mxCell>
        <mxCell id="xlSdThNH392_cb_FqB2u-25" value="End" style="ellipse;whiteSpace=wrap;html=1;" vertex="1" parent="1">
          <mxGeometry x="335" y="580" width="90" height="60" as="geometry" />
        </mxCell>
        <mxCell id="xlSdThNH392_cb_FqB2u-30" style="edgeStyle=orthogonalEdgeStyle;rounded=0;orthogonalLoop=1;jettySize=auto;html=1;entryX=0.893;entryY=0.253;entryDx=0;entryDy=0;entryPerimeter=0;" edge="1" parent="1" source="xlSdThNH392_cb_FqB2u-22" target="xlSdThNH392_cb_FqB2u-25">
          <mxGeometry relative="1" as="geometry">
            <Array as="points">
              <mxPoint x="530" y="595" />
            </Array>
          </mxGeometry>
        </mxCell>
        <mxCell id="xlSdThNH392_cb_FqB2u-31" style="edgeStyle=orthogonalEdgeStyle;rounded=0;orthogonalLoop=1;jettySize=auto;html=1;entryX=0.722;entryY=0;entryDx=0;entryDy=0;entryPerimeter=0;" edge="1" parent="1" source="xlSdThNH392_cb_FqB2u-14" target="xlSdThNH392_cb_FqB2u-25">
          <mxGeometry relative="1" as="geometry" />
        </mxCell>
        <mxCell id="xlSdThNH392_cb_FqB2u-33" style="edgeStyle=orthogonalEdgeStyle;rounded=0;orthogonalLoop=1;jettySize=auto;html=1;entryX=0.056;entryY=0.833;entryDx=0;entryDy=0;entryPerimeter=0;" edge="1" parent="1" source="xlSdThNH392_cb_FqB2u-10" target="xlSdThNH392_cb_FqB2u-25">
          <mxGeometry relative="1" as="geometry">
            <Array as="points">
              <mxPoint x="110" y="630" />
            </Array>
          </mxGeometry>
        </mxCell>
      </root>
    </mxGraphModel>
  </diagram>
</mxfile>
